name rise30.3154peak39.0474fall46.5389.mot
datacolumns 19
datarows 20
range 7.04498000000000 7.07664200000000
endheader
time	ground_force1_vx	ground_force1_vy	ground_force1_vz	ground_force1_px	ground_force1_py	ground_force1_pz	ground_force2_vx	ground_force2_vy	ground_force2_vz	ground_force2_px	ground_force2_py	ground_force2_pz	ground_torque1_x	ground_torque1_y	ground_torque1_z	ground_torque2_x	ground_torque2_y	ground_torque2_z	
7.04498000000000	-7.23803300000000	42.44081100000000	-10.49389800000000	0.28971500000000	0.00000000000000	0.10625900000000	-48.78116900000000	806.88232800000003	-57.60819000000000	0.11832000000000	0.00000000000000	-0.08087500000000	0.00000000000000	-6.42101400000000	0.00000000000000	0.00000000000000	-18.74639700000000	0.00000000000000	
7.04664500000000	-7.90839800000000	49.99829400000000	-11.79116200000000	0.29724800000000	0.00000000000000	0.10715900000000	-49.45244800000000	804.21088399999996	-57.42047800000000	0.11744400000000	0.00000000000000	-0.08079600000000	0.00000000000000	-7.33415800000000	0.00000000000000	0.00000000000000	-18.68638200000000	0.00000000000000	
7.04830900000000	-8.43262600000000	57.71640400000000	-12.96628300000000	0.30395900000000	0.00000000000000	0.10797000000000	-50.14663400000000	801.40289900000005	-57.21076800000000	0.11656800000000	0.00000000000000	-0.08071400000000	0.00000000000000	-8.19094300000000	0.00000000000000	0.00000000000000	-18.62867300000000	0.00000000000000	
7.04999000000000	-8.79044500000000	65.50036299999999	-13.99133800000000	0.30999100000000	0.00000000000000	0.10870700000000	-50.86308300000000	798.45595500000002	-56.97843000000000	0.11569300000000	0.00000000000000	-0.08063000000000	0.00000000000000	-8.97139500000000	0.00000000000000	0.00000000000000	-18.57323700000000	0.00000000000000	
7.05165400000000	-8.96980100000000	73.27659600000000	-14.84781900000000	0.31545500000000	0.00000000000000	0.10938300000000	-51.60100900000000	795.36756400000002	-56.72285400000000	0.11481800000000	0.00000000000000	-0.08054300000000	0.00000000000000	-9.66130900000000	0.00000000000000	0.00000000000000	-18.52001700000000	0.00000000000000	
7.05330700000000	-8.96673000000000	80.99521600000000	-15.52675500000000	0.32043700000000	0.00000000000000	0.11000700000000	-52.35948400000000	792.13517899999999	-56.44345000000000	0.11394600000000	0.00000000000000	-0.08045300000000	0.00000000000000	-10.25252000000000	0.00000000000000	0.00000000000000	-18.46893700000000	0.00000000000000	
7.05498100000000	-8.78458500000000	88.63014400000000	-16.02802700000000	0.32500800000000	0.00000000000000	0.11058600000000	-53.13743400000000	788.75619600000005	-56.13965600000000	0.11307600000000	0.00000000000000	-0.08035900000000	0.00000000000000	-10.74263900000000	0.00000000000000	0.00000000000000	-18.41989800000000	0.00000000000000	
7.05665700000000	-8.43280800000000	96.17723700000001	-16.35908500000000	0.32922500000000	0.00000000000000	0.11112600000000	-53.93364300000000	785.22796900000003	-55.81093700000000	0.11220900000000	0.00000000000000	-0.08026300000000	0.00000000000000	-11.13435400000000	0.00000000000000	0.00000000000000	-18.37278200000000	0.00000000000000	
7.05831100000000	-7.92540900000000	103.65093500000000	-16.53326000000000	0.33313500000000	0.00000000000000	0.11163300000000	-54.74675500000000	781.54781600000001	-55.45679000000000	0.11134500000000	0.00000000000000	-0.08016400000000	0.00000000000000	-11.43443400000000	0.00000000000000	0.00000000000000	-18.32744500000000	0.00000000000000	
7.05997700000000	-7.27934600000000	111.07995699999999	-16.56789400000000	0.33677500000000	0.00000000000000	0.11211000000000	-55.57527300000000	777.71303200000000	-55.07674800000000	0.11048500000000	0.00000000000000	-0.08006100000000	0.00000000000000	-11.65257400000000	0.00000000000000	0.00000000000000	-18.28372700000000	0.00000000000000	
7.06165300000000	-6.51293700000000	118.50257100000000	-16.48246600000000	0.34017900000000	0.00000000000000	0.11256100000000	-56.41756000000000	773.72089700000004	-54.67038400000000	0.10963100000000	0.00000000000000	-0.07995500000000	0.00000000000000	-11.80019300000000	0.00000000000000	0.00000000000000	-18.24144300000000	0.00000000000000	
7.06330900000000	-5.64445200000000	125.96189600000000	-16.29686500000000	0.34337400000000	0.00000000000000	0.11298900000000	-57.27185100000000	769.56869300000005	-54.23731600000000	0.10878200000000	0.00000000000000	-0.07984600000000	0.00000000000000	-11.88930400000000	0.00000000000000	0.00000000000000	-18.20039000000000	0.00000000000000	
7.06497500000000	-4.69093900000000	133.50160500000001	-16.02993700000000	0.34638100000000	0.00000000000000	0.11339600000000	-58.13624500000000	765.25371700000005	-53.77720500000000	0.10793900000000	0.00000000000000	-0.07973300000000	0.00000000000000	-11.93152800000000	0.00000000000000	0.00000000000000	-18.16034500000000	0.00000000000000	
7.06665700000000	-3.66736200000000	141.16230300000001	-15.69835600000000	0.34922100000000	0.00000000000000	0.11378400000000	-59.00871800000000	760.77329399999996	-53.28976300000000	0.10710400000000	0.00000000000000	-0.07961700000000	0.00000000000000	-11.93731000000000	0.00000000000000	0.00000000000000	-18.12106400000000	0.00000000000000	
7.06830900000000	-2.58604100000000	148.97872899999999	-15.31585800000000	0.35190900000000	0.00000000000000	0.11415500000000	-59.88712700000000	756.12479499999995	-52.77475800000000	0.10627700000000	0.00000000000000	-0.07949700000000	0.00000000000000	-11.91536100000000	0.00000000000000	0.00000000000000	-18.08228700000000	0.00000000000000	
7.06998100000000	-1.45640100000000	156.97786900000000	-14.89283800000000	0.35446100000000	0.00000000000000	0.11451100000000	-60.76921000000000	751.30565500000000	-52.23201100000000	0.10545800000000	0.00000000000000	-0.07937300000000	0.00000000000000	-11.87233200000000	0.00000000000000	0.00000000000000	-18.04373300000000	0.00000000000000	
7.07165000000000	-0.28498300000000	165.17793699999999	-14.43626500000000	0.35688800000000	0.00000000000000	0.11485300000000	-61.65260200000000	746.31338700000003	-51.66140200000000	0.10465000000000	0.00000000000000	-0.07924500000000	0.00000000000000	-11.81270000000000	0.00000000000000	0.00000000000000	-18.00510900000000	0.00000000000000	
7.07331200000000	0.92432500000000	173.58816800000000	-13.94987000000000	0.35920100000000	0.00000000000000	0.11518200000000	-62.53483200000000	741.14561000000003	-51.06287500000000	0.10385200000000	0.00000000000000	-0.07911400000000	0.00000000000000	-11.73884500000000	0.00000000000000	0.00000000000000	-17.96610100000000	0.00000000000000	
7.07497500000000	2.16990300000000	182.20926600000001	-13.43454400000000	0.36140800000000	0.00000000000000	0.11549900000000	-63.41333600000000	735.80005700000004	-50.43643700000000	0.10306500000000	0.00000000000000	-0.07897800000000	0.00000000000000	-11.65126500000000	0.00000000000000	0.00000000000000	-17.92638300000000	0.00000000000000	
7.07664200000000	3.45189800000000	191.03437299999999	-12.88888000000000	0.36351700000000	0.00000000000000	0.11580500000000	-64.28546600000000	730.27460599999995	-49.78215900000000	0.10229000000000	0.00000000000000	-0.07883900000000	0.00000000000000	-11.54890500000000	0.00000000000000	0.00000000000000	-17.88561600000000	0.00000000000000	
